<?xml version="1.0" standalone="no"?>
<!DOCTYPE svg PUBLIC "-//W3C//DTD SVG 20010904//EN"
 "http://www.w3.org/TR/2001/REC-SVG-20010904/DTD/svg10.dtd">
<svg version="1.0" xmlns="http://www.w3.org/2000/svg"
 width="800.000000pt" height="800.000000pt" viewBox="0 0 800.000000 800.000000"
 preserveAspectRatio="xMidYMid meet">
<metadata>
Created by potrace 1.14, written by Peter Selinger 2001-2017
</metadata>
<g transform="translate(0.000000,800.000000) scale(0.100000,-0.100000)"
fill="#000000" stroke="none">
<path d="M1298 7960 c-61 -37 -99 -105 -142 -252 -30 -103 -40 -205 -40 -388
0 -153 7 -221 34 -332 51 -205 142 -362 304 -520 62 -61 159 -132 421 -306
187 -125 347 -231 356 -237 56 -35 89 -57 129 -85 25 -17 74 -50 110 -73 36
-23 74 -50 84 -59 11 -10 23 -18 28 -18 7 0 95 -57 108 -70 3 -3 23 -17 45
-31 22 -15 256 -170 520 -345 1199 -794 1442 -958 1498 -1013 57 -56 111 -124
135 -171 16 -32 30 -110 25 -141 -8 -57 -58 -133 -140 -215 -92 -92 -117 -109
-1193 -816 -113 -74 -239 -156 -280 -183 -41 -27 -76 -53 -78 -57 -2 -5 -7 -8
-12 -8 -5 0 -36 -18 -69 -40 -58 -39 -218 -120 -244 -124 -6 -1 -17 -5 -23 -9
-23 -14 -130 -37 -175 -37 -25 0 -59 5 -76 10 -50 18 -94 90 -118 195 -15 63
-18 100 -30 400 -3 77 -7 178 -10 225 -2 47 -7 157 -10 245 -4 88 -8 192 -10
230 -2 39 -7 146 -10 238 -4 93 -8 178 -11 188 -2 10 -6 29 -9 42 -18 81 -173
341 -277 462 -48 57 -199 209 -241 243 -71 58 -220 152 -297 188 -79 36 -91
39 -175 39 -49 0 -102 -3 -117 -8 -63 -17 -123 -96 -146 -190 -10 -46 1 -4524
12 -4647 12 -128 37 -206 81 -254 l34 -37 113 2 c83 1 125 6 160 20 47 18 270
157 276 171 2 5 7 8 11 8 5 0 41 22 82 49 93 61 396 259 552 360 64 42 199
130 300 196 242 159 882 576 912 595 95 60 211 135 215 140 3 3 43 30 90 60
47 30 155 99 240 155 85 56 193 126 240 157 165 107 327 213 495 323 94 61
225 147 292 190 68 44 234 153 370 242 137 89 322 210 413 269 195 127 337
220 515 336 72 47 184 120 250 163 356 232 435 288 492 344 113 113 140 210
88 317 -37 75 -150 184 -274 265 -58 38 -110 72 -116 77 -5 4 -55 36 -110 71
-55 36 -165 107 -245 159 -164 107 -201 131 -355 231 -60 39 -117 75 -125 81
-8 6 -44 29 -80 52 -36 23 -135 87 -220 143 -85 55 -242 157 -348 225 -106 69
-284 184 -395 257 -279 182 -425 276 -445 288 -9 6 -55 35 -102 66 -122 80
-339 221 -455 296 -55 36 -119 78 -142 94 -23 16 -46 29 -52 29 -6 0 -11 5
-11 10 0 6 -4 10 -8 10 -5 0 -62 35 -128 78 -65 43 -150 99 -189 124 -38 25
-129 83 -201 130 -157 103 -213 139 -236 153 -9 5 -99 64 -200 129 -101 66
-241 158 -313 204 -71 47 -170 111 -219 143 -49 33 -93 59 -97 59 -5 0 -9 5
-9 10 0 6 -5 10 -11 10 -6 0 -29 13 -52 29 -85 59 -397 260 -455 293 -261 146
-427 195 -504 148z"/>
<path d="M707 6585 c-55 -19 -86 -42 -110 -83 -94 -158 92 -327 267 -242 138
67 138 243 0 313 -43 22 -113 27 -157 12z"/>
<path d="M1935 5659 c-185 -57 -263 -287 -153 -450 127 -188 414 -166 514 38
74 150 10 330 -142 399 -69 32 -144 37 -219 13z"/>
<path d="M3640 4629 c-192 -27 -387 -170 -478 -350 -131 -259 -85 -555 118
-760 81 -82 163 -133 270 -169 117 -40 313 -35 425 11 17 7 36 13 43 15 31 6
151 94 207 151 83 86 157 231 172 343 11 78 6 203 -10 267 -86 332 -401 540
-747 492z"/>
</g>
</svg>
